<?xml version="1.0" encoding="iso-8859-1"?>
<!-- Generator: Adobe Illustrator 19.0.0, SVG Export Plug-In . SVG Version: 6.00 Build 0)  -->
<svg version="1.1" id="Capa_1" xmlns="http://www.w3.org/2000/svg" xmlns:xlink="http://www.w3.org/1999/xlink" x="0px" y="0px"
	 viewBox="0 0 512 512" style="enable-background:new 0 0 512 512;" xml:space="preserve">
<circle style="fill:#FF3501;" cx="256" cy="256" r="256"/>
<path style="fill:#C70024;" d="M307.831,104.553c-23.186-23.327-55.299-37.77-90.788-37.77c-70.693,0-128,57.307-128,128
	c0,35.488,14.443,67.602,37.769,90.787L256,414.757v19.33l69.009,68.452v0.051c92.738-25.898,164.233-102.706,182.462-198.399
	L307.831,104.553z"/>
<circle style="fill:#ACABB1;" cx="217.043" cy="194.783" r="128"/>
<path style="fill:#898890;" d="M217.043,66.783v256c70.693,0,128-57.307,128-128S287.736,66.783,217.043,66.783z"/>
<circle style="fill:#FFFFFF;" cx="217.043" cy="194.783" r="110.347"/>
<path style="fill:#D8D7DA;" d="M217.043,84.438v220.69c60.941,0,110.345-49.404,110.345-110.345S277.985,84.438,217.043,84.438z"/>
<polygon points="285.776,144.605 267.049,125.879 211.387,181.541 159.664,181.541 159.664,208.024 222.064,208.024 "/>
<rect x="256" y="222.609" style="fill:#FFFFFF;" width="155.826" height="211.478"/>
<rect x="333.913" y="222.609" style="fill:#E1E3FA;" width="77.913" height="211.478"/>
<g>
	<rect x="322.783" y="378.435" style="fill:#C6C5CA;" width="66.783" height="11.13"/>
	<circle style="fill:#C6C5CA;" cx="294.957" cy="384" r="16.696"/>
	<rect x="322.783" y="322.783" style="fill:#C6C5CA;" width="66.783" height="11.13"/>
</g>
<polygon points="289.556,345.043 274.69,331.886 281.613,324.064 288.387,330.059 303.599,311.652 311.652,318.307 "/>
<rect x="322.783" y="267.13" style="fill:#C6C5CA;" width="66.783" height="11.13"/>
<polygon points="289.556,289.391 274.69,276.234 281.613,268.412 288.387,274.406 303.599,256 311.652,262.655 "/>
<g>
</g>
<g>
</g>
<g>
</g>
<g>
</g>
<g>
</g>
<g>
</g>
<g>
</g>
<g>
</g>
<g>
</g>
<g>
</g>
<g>
</g>
<g>
</g>
<g>
</g>
<g>
</g>
<g>
</g>
</svg>
